# xmcd CD database file
#
# Track frame offsets:
#	150
#	24908
#	49216
#	70824
#	92432
#	135565
#	177648
#	209906
#	240064
#	253797
#	290930
#	306163
#	332946
#
# Disc length: 4689 seconds
#
# Revision: 0
# Processed by: cddbd v1.5PL3 Copyright (c) Steve Scherf et al.
# Submitted via: CDex 1.40Release
#
DISCID=c4124f0d
DTITLE=Danny Draher - Big Fun Tonight
DYEAR=2004
DGENRE=Blues
TTITLE0=Big Fun Tonight!
TTITLE1=My Desire
TTITLE2=L'il Girl
TTITLE3=Garlic and Onions
TTITLE4=Don't Know Much
TTITLE5=32nd and 3rd
TTITLE6=Disco Woman
TTITLE7=Blues For C.L.
TTITLE8=Goin Home
TTITLE9=Love For You
TTITLE10=I Don't Know Why
TTITLE11=Got A Problem With That?
TTITLE12=Jigsaw
EXTD=YEAR: 2004 ID3G: 0
EXTT0=
EXTT1=
EXTT2=
EXTT3=
EXTT4=
EXTT5=
EXTT6=
EXTT7=
EXTT8=
EXTT9=
EXTT10=
EXTT11=
EXTT12=
PLAYORDER=
